# xmcd CD database file
#
# Track frame offsets:
#	150
#	7245
#	16651
#	39166
#	45704
#	69356
#	85986
#	98958
#	107696
#	118987
#	144535
#	156443
#	171133
#
# Disc length: 2508 seconds
#
# Revision: 0
# Processed by: cddbd v1.5PL3 Copyright (c) Steve Scherf et al.
# Submitted via: CDex 1.51
#
DISCID=a809ca0d
DTITLE=S.E.N.S. - Yah Yah Yah
DYEAR=1993
DGENRE=New Age
TTITLE0=With Every Step, The Transparent Wind - Overture 
TTITLE1=Nurse
TTITLE2=Choice of Gentleness
TTITLE3=Undivided Time
TTITLE4=Doctor
TTITLE5=Yah Yah Yah - Piano Version 
TTITLE6=Adult Garden - Strings Version
TTITLE7=Theme for Kranke
TTITLE8=With Every Step, The Transparent Wind - Guitar Version 
TTITLE9=Emergency
TTITLE10=Adult Garden - Piano Version 
TTITLE11=Yah Yah Yah - Dream Version
TTITLE12=With Every Step, The Transparent Wind - Orchestra Version 
EXTD=YEAR: 1993
EXTT0=
EXTT1=
EXTT2=
EXTT3=
EXTT4=
EXTT5=
EXTT6=
EXTT7=
EXTT8=
EXTT9=
EXTT10=
EXTT11=
EXTT12=
PLAYORDER=
